<svg width="71" height="72" viewBox="0 0 71 72" fill="none" xmlns="http://www.w3.org/2000/svg">
<g id="Iconsax/Outline/setting2" clip-path="url(#clip0_538_85)">
<g id="Vector" filter="url(#filter0_d_538_85)">
<path d="M35.5 47.25C29.3763 47.25 24.4062 42.21 24.4062 36C24.4062 29.79 29.3763 24.75 35.5 24.75C41.6237 24.75 46.5938 29.79 46.5938 36C46.5938 42.21 41.6237 47.25 35.5 47.25ZM35.5 29.25C31.8317 29.25 28.8438 32.28 28.8438 36C28.8438 39.72 31.8317 42.75 35.5 42.75C39.1683 42.75 42.1562 39.72 42.1562 36C42.1562 32.28 39.1683 29.25 35.5 29.25Z" fill="url(#paint0_linear_538_85)"/>
</g>
<g id="Vector_2" filter="url(#filter1_d_538_85)">
<path d="M44.9963 66.57C44.3751 66.57 43.7538 66.48 43.1326 66.33C41.2984 65.82 39.7601 64.65 38.7838 63L38.4288 62.4C36.6834 59.34 34.2872 59.34 32.5417 62.4L32.2163 62.97C31.2401 64.65 29.7017 65.85 27.8676 66.33C26.0038 66.84 24.0809 66.57 22.4538 65.58L17.3655 62.61C16.4714 62.0905 15.6871 61.3974 15.0574 60.5702C14.4277 59.7431 13.965 58.7981 13.6958 57.7895C13.4265 56.7809 13.356 55.7283 13.4882 54.692C13.6204 53.6557 13.9528 52.6559 14.4663 51.75C15.3242 50.22 15.5609 48.84 15.058 47.97C14.5551 47.1 13.283 46.59 11.5376 46.59C7.21841 46.59 3.698 43.02 3.698 38.64V33.36C3.698 28.98 7.21841 25.41 11.5376 25.41C13.283 25.41 14.5551 24.9 15.058 24.03C15.5609 23.16 15.3538 21.78 14.4663 20.25C13.4309 18.42 13.1647 16.26 13.6972 14.22C14.2297 12.15 15.5313 10.44 17.3655 9.39L22.4834 6.42C25.8263 4.41 30.2342 5.58 32.2459 9.03L32.6009 9.63C34.3463 12.69 36.7426 12.69 38.488 9.63L38.8134 9.06C40.8251 5.58 45.233 4.41 48.6055 6.45L53.6938 9.42C54.5879 9.9395 55.3722 10.6326 56.0019 11.4598C56.6316 12.2869 57.0943 13.2319 57.3636 14.2405C57.6328 15.2491 57.7034 16.3017 57.5711 17.338C57.4389 18.3744 57.1065 19.3741 56.593 20.28C55.7351 21.81 55.4984 23.19 56.0013 24.06C56.5042 24.93 57.7763 25.44 59.5217 25.44C63.8409 25.44 67.3613 29.01 67.3613 33.39V38.67C67.3613 43.05 63.8409 46.62 59.5217 46.62C57.7763 46.62 56.5042 47.13 56.0013 48C55.4984 48.87 55.7055 50.25 56.593 51.78C57.6284 53.61 57.9242 55.77 57.3622 57.81C57.105 58.825 56.6473 59.7764 56.0167 60.6067C55.3861 61.4369 54.5959 62.1287 53.6938 62.64L48.5759 65.61C47.4517 66.24 46.2388 66.57 44.9963 66.57ZM35.5001 55.47C38.133 55.47 40.5884 57.15 42.2747 60.12L42.6001 60.69C42.9551 61.32 43.5467 61.77 44.2567 61.95C44.9667 62.13 45.6767 62.04 46.2684 61.68L51.3863 58.68C52.1674 58.2231 52.7391 57.4721 52.9773 56.5902C53.2155 55.7083 53.1009 54.7667 52.6584 53.97C50.9722 51.03 50.7651 48 52.0667 45.69C53.3684 43.38 56.0605 42.06 59.433 42.06C61.3263 42.06 62.8351 40.53 62.8351 38.61V33.33C62.8351 31.44 61.3263 29.88 59.433 29.88C56.0605 29.88 53.3684 28.56 52.0667 26.25C50.7651 23.94 50.9722 20.91 52.6584 17.97C53.1022 17.19 53.2205 16.26 52.9838 15.36C52.7472 14.46 52.1851 13.74 51.4159 13.26L46.298 10.29C45.9892 10.1064 45.6478 9.98638 45.2933 9.93677C44.9387 9.88717 44.578 9.90897 44.2317 10.0009C43.8855 10.0929 43.5606 10.2532 43.2755 10.4727C42.9904 10.6922 42.7509 10.9665 42.5705 11.28L42.2451 11.85C40.5588 14.82 38.1034 16.5 35.4705 16.5C32.8376 16.5 30.3822 14.82 28.6959 11.85L28.3705 11.25C28.0029 10.6369 27.4138 10.1935 26.7287 10.0142C26.0435 9.83492 25.3164 9.93387 24.7022 10.29L19.5842 13.29C18.8032 13.7469 18.2314 14.4979 17.9933 15.3798C17.7551 16.2617 17.8697 17.2033 18.3122 18C19.9984 20.94 20.2055 23.97 18.9038 26.28C17.6022 28.59 14.9101 29.91 11.5376 29.91C9.64425 29.91 8.1355 31.44 8.1355 33.36V38.64C8.1355 40.53 9.64425 42.09 11.5376 42.09C14.9101 42.09 17.6022 43.41 18.9038 45.72C20.2055 48.03 19.9984 51.06 18.3122 54C17.8684 54.78 17.7501 55.71 17.9867 56.61C18.2234 57.51 18.7855 58.23 19.5547 58.71L24.6726 61.68C25.2938 62.07 26.0334 62.16 26.7138 61.98C27.4238 61.8 28.0155 61.32 28.4001 60.69L28.7255 60.12C30.4117 57.18 32.8672 55.47 35.5001 55.47Z" fill="url(#paint1_linear_538_85)"/>
</g>
</g>
<defs>
<filter id="filter0_d_538_85" x="24.4062" y="24.75" width="32.1875" height="32.5" filterUnits="userSpaceOnUse" color-interpolation-filters="sRGB">
<feFlood flood-opacity="0" result="BackgroundImageFix"/>
<feColorMatrix in="SourceAlpha" type="matrix" values="0 0 0 0 0 0 0 0 0 0 0 0 0 0 0 0 0 0 127 0" result="hardAlpha"/>
<feOffset dx="5" dy="5"/>
<feGaussianBlur stdDeviation="2.5"/>
<feComposite in2="hardAlpha" operator="out"/>
<feColorMatrix type="matrix" values="0 0 0 0 0.0666667 0 0 0 0 0.415686 0 0 0 0 0.941176 0 0 0 0.12 0"/>
<feBlend mode="normal" in2="BackgroundImageFix" result="effect1_dropShadow_538_85"/>
<feBlend mode="normal" in="SourceGraphic" in2="effect1_dropShadow_538_85" result="shape"/>
</filter>
<filter id="filter1_d_538_85" x="3.698" y="5.43665" width="73.6633" height="71.1456" filterUnits="userSpaceOnUse" color-interpolation-filters="sRGB">
<feFlood flood-opacity="0" result="BackgroundImageFix"/>
<feColorMatrix in="SourceAlpha" type="matrix" values="0 0 0 0 0 0 0 0 0 0 0 0 0 0 0 0 0 0 127 0" result="hardAlpha"/>
<feOffset dx="5" dy="5"/>
<feGaussianBlur stdDeviation="2.5"/>
<feComposite in2="hardAlpha" operator="out"/>
<feColorMatrix type="matrix" values="0 0 0 0 0.0666667 0 0 0 0 0.415686 0 0 0 0 0.941176 0 0 0 0.12 0"/>
<feBlend mode="normal" in2="BackgroundImageFix" result="effect1_dropShadow_538_85"/>
<feBlend mode="normal" in="SourceGraphic" in2="effect1_dropShadow_538_85" result="shape"/>
</filter>
<linearGradient id="paint0_linear_538_85" x1="26.9753" y1="24.75" x2="45.4064" y2="41.3058" gradientUnits="userSpaceOnUse">
<stop stop-color="#37013F"/>
<stop offset="0.94985" stop-color="#B4088D"/>
</linearGradient>
<linearGradient id="paint1_linear_538_85" x1="11.0695" y1="5.43665" x2="61.3755" y2="53.1477" gradientUnits="userSpaceOnUse">
<stop stop-color="#37013F"/>
<stop offset="0.94985" stop-color="#B4088D"/>
</linearGradient>
<clipPath id="clip0_538_85">
<rect width="71" height="72" fill="white"/>
</clipPath>
</defs>
</svg>
