<svg width="1261" height="332" viewBox="0 0 1261 332" fill="none" xmlns="http://www.w3.org/2000/svg">
<g filter="url(#filter0_d_297_586)">
<path d="M15 25C15 19.4771 19.4772 15 25 15H429.343C432.432 15 435.348 16.4282 437.243 18.869L540.347 151.724C543.098 155.268 543.151 160.211 540.478 163.814L437.239 302.959C435.352 305.501 432.374 307 429.208 307H25C19.4771 307 15 302.523 15 297V25Z" fill="white"/>
</g>
<path d="M104.808 107L98.5646 85.1818H103.604L107.215 100.342H107.396L111.381 85.1818H115.695L119.669 100.374H119.861L123.472 85.1818H128.511L122.268 107H117.773L113.618 92.7351H113.447L109.303 107H104.808ZM136.595 107.32C134.911 107.32 133.463 106.979 132.248 106.297C131.041 105.608 130.11 104.635 129.457 103.378C128.803 102.114 128.477 100.619 128.477 98.8928C128.477 97.2095 128.803 95.7322 129.457 94.4609C130.11 93.1896 131.03 92.1989 132.216 91.4886C133.409 90.7784 134.808 90.4233 136.414 90.4233C137.493 90.4233 138.498 90.5973 139.428 90.9453C140.366 91.2862 141.183 91.8011 141.879 92.4901C142.582 93.179 143.129 94.0455 143.519 95.0895C143.91 96.1264 144.105 97.3409 144.105 98.733V99.9794H130.288V97.1669H139.833C139.833 96.5135 139.691 95.9347 139.407 95.4304C139.123 94.9261 138.729 94.532 138.225 94.2479C137.727 93.9567 137.149 93.8111 136.488 93.8111C135.799 93.8111 135.188 93.9709 134.656 94.2905C134.13 94.603 133.718 95.0256 133.42 95.5582C133.122 96.0838 132.969 96.6697 132.962 97.3161V99.9901C132.962 100.8 133.111 101.499 133.409 102.089C133.715 102.678 134.144 103.133 134.698 103.452C135.252 103.772 135.909 103.932 136.669 103.932C137.173 103.932 137.635 103.861 138.054 103.719C138.473 103.577 138.832 103.364 139.13 103.08C139.428 102.795 139.656 102.447 139.812 102.036L144.009 102.312C143.796 103.321 143.36 104.202 142.699 104.955C142.046 105.7 141.2 106.283 140.164 106.702C139.134 107.114 137.944 107.32 136.595 107.32ZM154.01 113.136V90.6364H158.485V93.3849H158.687C158.886 92.9446 159.174 92.4972 159.55 92.0426C159.934 91.581 160.431 91.1974 161.042 90.892C161.659 90.5795 162.426 90.4233 163.343 90.4233C164.536 90.4233 165.637 90.7358 166.645 91.3608C167.654 91.9787 168.46 92.9126 169.064 94.1626C169.667 95.4055 169.969 96.9645 169.969 98.8395C169.969 100.665 169.674 102.206 169.085 103.463C168.502 104.713 167.707 105.661 166.699 106.308C165.697 106.947 164.575 107.266 163.332 107.266C162.451 107.266 161.702 107.121 161.084 106.83C160.473 106.538 159.973 106.173 159.582 105.732C159.191 105.285 158.893 104.834 158.687 104.379H158.549V113.136H154.01ZM158.453 98.8182C158.453 99.7912 158.588 100.64 158.858 101.364C159.127 102.089 159.518 102.653 160.029 103.058C160.541 103.456 161.162 103.655 161.894 103.655C162.632 103.655 163.257 103.452 163.769 103.048C164.28 102.636 164.667 102.067 164.93 101.343C165.2 100.612 165.335 99.7699 165.335 98.8182C165.335 97.8736 165.203 97.0426 164.941 96.3253C164.678 95.608 164.291 95.0469 163.779 94.642C163.268 94.2372 162.64 94.0348 161.894 94.0348C161.155 94.0348 160.53 94.2301 160.019 94.6207C159.515 95.0114 159.127 95.5653 158.858 96.2827C158.588 97 158.453 97.8452 158.453 98.8182ZM172.995 107V90.6364H177.395V93.4915H177.565C177.863 92.4759 178.364 91.7088 179.067 91.1903C179.77 90.6648 180.58 90.402 181.496 90.402C181.723 90.402 181.968 90.4162 182.231 90.4446C182.494 90.473 182.725 90.5121 182.924 90.5618V94.5888C182.711 94.5249 182.416 94.468 182.039 94.4183C181.663 94.3686 181.319 94.3438 181.006 94.3438C180.338 94.3438 179.742 94.4893 179.216 94.7805C178.698 95.0646 178.286 95.4624 177.98 95.9737C177.682 96.4851 177.533 97.0746 177.533 97.7422V107H172.995ZM191.902 107.32C190.247 107.32 188.816 106.968 187.608 106.265C186.408 105.555 185.481 104.567 184.828 103.303C184.175 102.032 183.848 100.558 183.848 98.8821C183.848 97.1918 184.175 95.7145 184.828 94.4503C185.481 93.179 186.408 92.1918 187.608 91.4886C188.816 90.7784 190.247 90.4233 191.902 90.4233C193.557 90.4233 194.984 90.7784 196.184 91.4886C197.392 92.1918 198.322 93.179 198.976 94.4503C199.629 95.7145 199.956 97.1918 199.956 98.8821C199.956 100.558 199.629 102.032 198.976 103.303C198.322 104.567 197.392 105.555 196.184 106.265C194.984 106.968 193.557 107.32 191.902 107.32ZM191.923 103.804C192.676 103.804 193.305 103.591 193.809 103.165C194.313 102.732 194.693 102.142 194.949 101.396C195.211 100.651 195.343 99.8018 195.343 98.8501C195.343 97.8984 195.211 97.0497 194.949 96.304C194.693 95.5582 194.313 94.9687 193.809 94.5355C193.305 94.1023 192.676 93.8857 191.923 93.8857C191.163 93.8857 190.524 94.1023 190.006 94.5355C189.494 94.9687 189.107 95.5582 188.844 96.304C188.589 97.0497 188.461 97.8984 188.461 98.8501C188.461 99.8018 188.589 100.651 188.844 101.396C189.107 102.142 189.494 102.732 190.006 103.165C190.524 103.591 191.163 103.804 191.923 103.804ZM217.635 90.6364L211.914 107H206.801L201.08 90.6364H205.874L209.272 102.344H209.443L212.83 90.6364H217.635ZM219.958 107V90.6364H224.496V107H219.958ZM222.237 88.527C221.563 88.527 220.984 88.3033 220.501 87.8558C220.025 87.4013 219.787 86.858 219.787 86.2259C219.787 85.6009 220.025 85.0646 220.501 84.6172C220.984 84.1626 221.563 83.9354 222.237 83.9354C222.912 83.9354 223.487 84.1626 223.963 84.6172C224.446 85.0646 224.688 85.6009 224.688 86.2259C224.688 86.858 224.446 87.4013 223.963 87.8558C223.487 88.3033 222.912 88.527 222.237 88.527ZM234.161 107.266C232.918 107.266 231.793 106.947 230.784 106.308C229.783 105.661 228.987 104.713 228.398 103.463C227.815 102.206 227.524 100.665 227.524 98.8395C227.524 96.9645 227.826 95.4055 228.43 94.1626C229.033 92.9126 229.836 91.9787 230.837 91.3608C231.846 90.7358 232.95 90.4233 234.151 90.4233C235.067 90.4233 235.83 90.5795 236.441 90.892C237.059 91.1974 237.556 91.581 237.933 92.0426C238.316 92.4972 238.607 92.9446 238.806 93.3849H238.945V85.1818H243.472V107H238.998V104.379H238.806C238.593 104.834 238.291 105.285 237.901 105.732C237.517 106.173 237.016 106.538 236.398 106.83C235.788 107.121 235.042 107.266 234.161 107.266ZM235.599 103.655C236.331 103.655 236.949 103.456 237.453 103.058C237.964 102.653 238.355 102.089 238.625 101.364C238.902 100.64 239.04 99.7912 239.04 98.8182C239.04 97.8452 238.906 97 238.636 96.2827C238.366 95.5653 237.975 95.0114 237.464 94.6207C236.952 94.2301 236.331 94.0348 235.599 94.0348C234.854 94.0348 234.225 94.2372 233.714 94.642C233.202 95.0469 232.815 95.608 232.553 96.3253C232.29 97.0426 232.158 97.8736 232.158 98.8182C232.158 99.7699 232.29 100.612 232.553 101.343C232.822 102.067 233.21 102.636 233.714 103.048C234.225 103.452 234.854 103.655 235.599 103.655ZM254.661 107.32C252.978 107.32 251.529 106.979 250.314 106.297C249.107 105.608 248.177 104.635 247.523 103.378C246.87 102.114 246.543 100.619 246.543 98.8928C246.543 97.2095 246.87 95.7322 247.523 94.4609C248.177 93.1896 249.096 92.1989 250.282 91.4886C251.476 90.7784 252.875 90.4233 254.48 90.4233C255.559 90.4233 256.564 90.5973 257.495 90.9453C258.432 91.2862 259.249 91.8011 259.945 92.4901C260.648 93.179 261.195 94.0455 261.586 95.0895C261.976 96.1264 262.172 97.3409 262.172 98.733V99.9794H248.354V97.1669H257.9C257.9 96.5135 257.758 95.9347 257.474 95.4304C257.189 94.9261 256.795 94.532 256.291 94.2479C255.794 93.9567 255.215 93.8111 254.555 93.8111C253.866 93.8111 253.255 93.9709 252.722 94.2905C252.197 94.603 251.785 95.0256 251.486 95.5582C251.188 96.0838 251.035 96.6697 251.028 97.3161V99.9901C251.028 100.8 251.177 101.499 251.476 102.089C251.781 102.678 252.211 103.133 252.765 103.452C253.319 103.772 253.976 103.932 254.736 103.932C255.24 103.932 255.702 103.861 256.121 103.719C256.54 103.577 256.898 103.364 257.197 103.08C257.495 102.795 257.722 102.447 257.878 102.036L262.076 102.312C261.863 103.321 261.426 104.202 260.765 104.955C260.112 105.7 259.267 106.283 258.23 106.702C257.2 107.114 256.01 107.32 254.661 107.32ZM108.515 132.636V136.045H98.6605V132.636H108.515ZM100.898 128.716H105.436V143.972C105.436 144.391 105.5 144.717 105.628 144.952C105.756 145.179 105.933 145.339 106.161 145.431C106.395 145.523 106.665 145.57 106.97 145.57C107.183 145.57 107.396 145.552 107.609 145.516C107.822 145.474 107.986 145.442 108.099 145.42L108.813 148.798C108.586 148.869 108.266 148.95 107.854 149.043C107.442 149.142 106.942 149.202 106.352 149.224C105.259 149.266 104.3 149.121 103.476 148.787C102.659 148.453 102.023 147.935 101.569 147.232C101.114 146.528 100.891 145.641 100.898 144.568V128.716ZM116.361 139.54V149H111.823V127.182H116.233V135.523H116.425C116.794 134.558 117.391 133.801 118.215 133.254C119.039 132.7 120.072 132.423 121.315 132.423C122.451 132.423 123.442 132.672 124.287 133.169C125.14 133.659 125.8 134.366 126.269 135.289C126.745 136.205 126.979 137.303 126.972 138.581V149H122.434V139.391C122.441 138.382 122.185 137.597 121.667 137.036C121.155 136.475 120.438 136.195 119.515 136.195C118.897 136.195 118.35 136.326 117.874 136.589C117.405 136.852 117.036 137.235 116.766 137.739C116.503 138.237 116.368 138.837 116.361 139.54ZM138.001 149.32C136.318 149.32 134.869 148.979 133.654 148.297C132.447 147.608 131.517 146.635 130.863 145.378C130.21 144.114 129.883 142.619 129.883 140.893C129.883 139.21 130.21 137.732 130.863 136.461C131.517 135.19 132.436 134.199 133.622 133.489C134.816 132.778 136.215 132.423 137.82 132.423C138.899 132.423 139.904 132.597 140.835 132.945C141.772 133.286 142.589 133.801 143.285 134.49C143.988 135.179 144.535 136.045 144.926 137.089C145.316 138.126 145.512 139.341 145.512 140.733V141.979H131.694V139.167H141.24C141.24 138.513 141.097 137.935 140.813 137.43C140.529 136.926 140.135 136.532 139.631 136.248C139.134 135.957 138.555 135.811 137.894 135.811C137.205 135.811 136.595 135.971 136.062 136.29C135.536 136.603 135.124 137.026 134.826 137.558C134.528 138.084 134.375 138.67 134.368 139.316V141.99C134.368 142.8 134.517 143.499 134.816 144.089C135.121 144.678 135.551 145.133 136.105 145.452C136.659 145.772 137.316 145.932 138.075 145.932C138.58 145.932 139.041 145.861 139.46 145.719C139.879 145.577 140.238 145.364 140.536 145.08C140.835 144.795 141.062 144.447 141.218 144.036L145.416 144.312C145.203 145.321 144.766 146.202 144.105 146.955C143.452 147.7 142.607 148.283 141.57 148.702C140.54 149.114 139.35 149.32 138.001 149.32ZM155.502 149V127.182H160.04V135.385H160.179C160.377 134.945 160.665 134.497 161.042 134.043C161.425 133.581 161.922 133.197 162.533 132.892C163.151 132.58 163.918 132.423 164.834 132.423C166.027 132.423 167.128 132.736 168.137 133.361C169.145 133.979 169.951 134.913 170.555 136.163C171.159 137.406 171.461 138.964 171.461 140.839C171.461 142.665 171.166 144.206 170.576 145.463C169.994 146.713 169.199 147.661 168.19 148.308C167.189 148.947 166.066 149.266 164.824 149.266C163.943 149.266 163.194 149.121 162.576 148.83C161.965 148.538 161.464 148.173 161.074 147.732C160.683 147.285 160.385 146.834 160.179 146.379H159.976V149H155.502ZM159.944 140.818C159.944 141.791 160.079 142.64 160.349 143.364C160.619 144.089 161.01 144.653 161.521 145.058C162.032 145.456 162.654 145.655 163.385 145.655C164.124 145.655 164.749 145.452 165.26 145.048C165.772 144.636 166.159 144.067 166.422 143.343C166.691 142.612 166.826 141.77 166.826 140.818C166.826 139.874 166.695 139.043 166.432 138.325C166.169 137.608 165.782 137.047 165.271 136.642C164.76 136.237 164.131 136.035 163.385 136.035C162.647 136.035 162.022 136.23 161.51 136.621C161.006 137.011 160.619 137.565 160.349 138.283C160.079 139 159.944 139.845 159.944 140.818ZM181.946 149.32C180.263 149.32 178.814 148.979 177.6 148.297C176.392 147.608 175.462 146.635 174.808 145.378C174.155 144.114 173.828 142.619 173.828 140.893C173.828 139.21 174.155 137.732 174.808 136.461C175.462 135.19 176.382 134.199 177.568 133.489C178.761 132.778 180.16 132.423 181.765 132.423C182.845 132.423 183.85 132.597 184.78 132.945C185.718 133.286 186.534 133.801 187.23 134.49C187.933 135.179 188.48 136.045 188.871 137.089C189.262 138.126 189.457 139.341 189.457 140.733V141.979H175.639V139.167H185.185C185.185 138.513 185.043 137.935 184.759 137.43C184.475 136.926 184.08 136.532 183.576 136.248C183.079 135.957 182.5 135.811 181.84 135.811C181.151 135.811 180.54 135.971 180.007 136.29C179.482 136.603 179.07 137.026 178.771 137.558C178.473 138.084 178.32 138.67 178.313 139.316V141.99C178.313 142.8 178.463 143.499 178.761 144.089C179.066 144.678 179.496 145.133 180.05 145.452C180.604 145.772 181.261 145.932 182.021 145.932C182.525 145.932 182.987 145.861 183.406 145.719C183.825 145.577 184.183 145.364 184.482 145.08C184.78 144.795 185.007 144.447 185.164 144.036L189.361 144.312C189.148 145.321 188.711 146.202 188.051 146.955C187.397 147.7 186.552 148.283 185.515 148.702C184.485 149.114 183.296 149.32 181.946 149.32ZM206.034 137.303L201.879 137.558C201.808 137.203 201.655 136.884 201.421 136.599C201.186 136.308 200.877 136.077 200.494 135.907C200.117 135.729 199.666 135.641 199.141 135.641C198.438 135.641 197.845 135.79 197.362 136.088C196.879 136.379 196.637 136.77 196.637 137.26C196.637 137.651 196.794 137.981 197.106 138.251C197.419 138.521 197.955 138.737 198.715 138.901L201.676 139.497C203.267 139.824 204.453 140.349 205.235 141.074C206.016 141.798 206.406 142.75 206.406 143.929C206.406 145.001 206.09 145.942 205.458 146.752C204.833 147.562 203.974 148.194 202.88 148.648C201.794 149.096 200.54 149.32 199.119 149.32C196.953 149.32 195.227 148.869 193.942 147.967C192.664 147.058 191.914 145.822 191.694 144.259L196.158 144.025C196.293 144.685 196.619 145.19 197.138 145.538C197.656 145.879 198.32 146.049 199.13 146.049C199.926 146.049 200.565 145.896 201.048 145.591C201.538 145.278 201.786 144.877 201.794 144.387C201.786 143.975 201.612 143.638 201.271 143.375C200.931 143.105 200.405 142.899 199.695 142.757L196.861 142.192C195.263 141.873 194.073 141.319 193.292 140.531C192.518 139.742 192.131 138.737 192.131 137.516C192.131 136.464 192.415 135.559 192.983 134.799C193.558 134.039 194.365 133.453 195.401 133.041C196.445 132.629 197.667 132.423 199.066 132.423C201.133 132.423 202.759 132.86 203.945 133.734C205.139 134.607 205.835 135.797 206.034 137.303ZM217.968 132.636V136.045H208.114V132.636H217.968ZM210.351 128.716H214.889V143.972C214.889 144.391 214.953 144.717 215.081 144.952C215.209 145.179 215.386 145.339 215.614 145.431C215.848 145.523 216.118 145.57 216.423 145.57C216.636 145.57 216.849 145.552 217.062 145.516C217.276 145.474 217.439 145.442 217.553 145.42L218.266 148.798C218.039 148.869 217.719 148.95 217.308 149.043C216.896 149.142 216.395 149.202 215.805 149.224C214.712 149.266 213.753 149.121 212.929 148.787C212.112 148.453 211.477 147.935 211.022 147.232C210.567 146.528 210.344 145.641 210.351 144.568V128.716ZM241.483 137.303L237.328 137.558C237.257 137.203 237.104 136.884 236.87 136.599C236.635 136.308 236.327 136.077 235.943 135.907C235.567 135.729 235.116 135.641 234.59 135.641C233.887 135.641 233.294 135.79 232.811 136.088C232.328 136.379 232.086 136.77 232.086 137.26C232.086 137.651 232.243 137.981 232.555 138.251C232.868 138.521 233.404 138.737 234.164 138.901L237.126 139.497C238.716 139.824 239.903 140.349 240.684 141.074C241.465 141.798 241.856 142.75 241.856 143.929C241.856 145.001 241.54 145.942 240.907 146.752C240.282 147.562 239.423 148.194 238.329 148.648C237.243 149.096 235.989 149.32 234.569 149.32C232.403 149.32 230.677 148.869 229.391 147.967C228.113 147.058 227.363 145.822 227.143 144.259L231.607 144.025C231.742 144.685 232.069 145.19 232.587 145.538C233.106 145.879 233.77 146.049 234.579 146.049C235.375 146.049 236.014 145.896 236.497 145.591C236.987 145.278 237.236 144.877 237.243 144.387C237.236 143.975 237.062 143.638 236.721 143.375C236.38 143.105 235.854 142.899 235.144 142.757L232.31 142.192C230.712 141.873 229.523 141.319 228.741 140.531C227.967 139.742 227.58 138.737 227.58 137.516C227.58 136.464 227.864 135.559 228.432 134.799C229.008 134.039 229.814 133.453 230.851 133.041C231.895 132.629 233.116 132.423 234.515 132.423C236.582 132.423 238.209 132.86 239.395 133.734C240.588 134.607 241.284 135.797 241.483 137.303ZM253.417 132.636V136.045H243.563V132.636H253.417ZM245.8 128.716H250.338V143.972C250.338 144.391 250.402 144.717 250.53 144.952C250.658 145.179 250.836 145.339 251.063 145.431C251.297 145.523 251.567 145.57 251.873 145.57C252.086 145.57 252.299 145.552 252.512 145.516C252.725 145.474 252.888 145.442 253.002 145.42L253.716 148.798C253.488 148.869 253.169 148.95 252.757 149.043C252.345 149.142 251.844 149.202 251.255 149.224C250.161 149.266 249.202 149.121 248.378 148.787C247.561 148.453 246.926 147.935 246.471 147.232C246.017 146.528 245.793 145.641 245.8 144.568V128.716ZM256.374 149V132.636H260.773V135.491H260.944C261.242 134.476 261.743 133.709 262.446 133.19C263.149 132.665 263.959 132.402 264.875 132.402C265.102 132.402 265.347 132.416 265.61 132.445C265.873 132.473 266.104 132.512 266.303 132.562V136.589C266.089 136.525 265.795 136.468 265.418 136.418C265.042 136.369 264.697 136.344 264.385 136.344C263.717 136.344 263.121 136.489 262.595 136.781C262.077 137.065 261.665 137.462 261.359 137.974C261.061 138.485 260.912 139.075 260.912 139.742V149H256.374ZM272.846 149.309C271.802 149.309 270.872 149.128 270.055 148.766C269.238 148.396 268.592 147.853 268.116 147.136C267.648 146.411 267.413 145.509 267.413 144.43C267.413 143.521 267.58 142.757 267.914 142.139C268.248 141.521 268.702 141.024 269.278 140.648C269.853 140.271 270.506 139.987 271.238 139.795C271.976 139.604 272.751 139.469 273.56 139.391C274.512 139.291 275.279 139.199 275.861 139.114C276.444 139.021 276.866 138.886 277.129 138.709C277.392 138.531 277.523 138.268 277.523 137.92V137.857C277.523 137.182 277.31 136.66 276.884 136.29C276.465 135.921 275.868 135.737 275.094 135.737C274.278 135.737 273.628 135.918 273.145 136.28C272.662 136.635 272.342 137.082 272.186 137.622L267.988 137.281C268.202 136.287 268.621 135.428 269.246 134.703C269.871 133.972 270.677 133.411 271.664 133.02C272.658 132.622 273.809 132.423 275.116 132.423C276.025 132.423 276.895 132.53 277.726 132.743C278.564 132.956 279.306 133.286 279.952 133.734C280.606 134.181 281.121 134.756 281.497 135.46C281.873 136.156 282.062 136.99 282.062 137.963V149H277.758V146.731H277.63C277.367 147.242 277.015 147.693 276.575 148.084C276.135 148.467 275.606 148.769 274.988 148.989C274.37 149.202 273.656 149.309 272.846 149.309ZM274.146 146.177C274.814 146.177 275.403 146.045 275.915 145.783C276.426 145.513 276.827 145.151 277.118 144.696C277.41 144.241 277.555 143.727 277.555 143.151V141.415C277.413 141.507 277.218 141.592 276.969 141.67C276.728 141.741 276.454 141.809 276.149 141.873C275.844 141.93 275.538 141.983 275.233 142.033C274.927 142.075 274.65 142.114 274.402 142.15C273.869 142.228 273.404 142.352 273.006 142.523C272.608 142.693 272.3 142.924 272.079 143.215C271.859 143.499 271.749 143.854 271.749 144.281C271.749 144.898 271.973 145.371 272.42 145.697C272.875 146.017 273.45 146.177 274.146 146.177ZM294.286 132.636V136.045H284.432V132.636H294.286ZM286.669 128.716H291.208V143.972C291.208 144.391 291.271 144.717 291.399 144.952C291.527 145.179 291.705 145.339 291.932 145.431C292.166 145.523 292.436 145.57 292.742 145.57C292.955 145.57 293.168 145.552 293.381 145.516C293.594 145.474 293.757 145.442 293.871 145.42L294.585 148.798C294.357 148.869 294.038 148.95 293.626 149.043C293.214 149.142 292.713 149.202 292.124 149.224C291.03 149.266 290.071 149.121 289.247 148.787C288.431 148.453 287.795 147.935 287.34 147.232C286.886 146.528 286.662 145.641 286.669 144.568V128.716ZM304.524 149.32C302.841 149.32 301.392 148.979 300.178 148.297C298.97 147.608 298.04 146.635 297.387 145.378C296.733 144.114 296.406 142.619 296.406 140.893C296.406 139.21 296.733 137.732 297.387 136.461C298.04 135.19 298.96 134.199 300.146 133.489C301.339 132.778 302.738 132.423 304.343 132.423C305.423 132.423 306.428 132.597 307.358 132.945C308.296 133.286 309.112 133.801 309.808 134.49C310.512 135.179 311.058 136.045 311.449 137.089C311.84 138.126 312.035 139.341 312.035 140.733V141.979H298.218V139.167H307.763C307.763 138.513 307.621 137.935 307.337 137.43C307.053 136.926 306.659 136.532 306.154 136.248C305.657 135.957 305.078 135.811 304.418 135.811C303.729 135.811 303.118 135.971 302.585 136.29C302.06 136.603 301.648 137.026 301.35 137.558C301.051 138.084 300.899 138.67 300.892 139.316V141.99C300.892 142.8 301.041 143.499 301.339 144.089C301.644 144.678 302.074 145.133 302.628 145.452C303.182 145.772 303.839 145.932 304.599 145.932C305.103 145.932 305.565 145.861 305.984 145.719C306.403 145.577 306.762 145.364 307.06 145.08C307.358 144.795 307.585 144.447 307.742 144.036L311.939 144.312C311.726 145.321 311.289 146.202 310.629 146.955C309.975 147.7 309.13 148.283 308.093 148.702C307.063 149.114 305.874 149.32 304.524 149.32ZM322.369 155.477C320.899 155.477 319.638 155.275 318.587 154.87C317.543 154.472 316.712 153.929 316.094 153.24C315.476 152.551 315.075 151.777 314.89 150.918L319.088 150.353C319.215 150.68 319.418 150.985 319.695 151.269C319.972 151.553 320.338 151.781 320.792 151.951C321.254 152.129 321.815 152.217 322.475 152.217C323.463 152.217 324.276 151.976 324.915 151.493C325.561 151.017 325.884 150.218 325.884 149.096V146.102H325.693C325.494 146.557 325.195 146.987 324.798 147.391C324.4 147.796 323.889 148.126 323.264 148.382C322.639 148.638 321.893 148.766 321.026 148.766C319.798 148.766 318.679 148.482 317.671 147.913C316.669 147.338 315.87 146.461 315.274 145.282C314.684 144.096 314.389 142.597 314.389 140.786C314.389 138.933 314.691 137.384 315.295 136.141C315.899 134.898 316.701 133.968 317.703 133.35C318.711 132.732 319.816 132.423 321.016 132.423C321.932 132.423 322.699 132.58 323.317 132.892C323.935 133.197 324.432 133.581 324.808 134.043C325.192 134.497 325.487 134.945 325.693 135.385H325.863V132.636H330.369V149.16C330.369 150.552 330.029 151.717 329.347 152.654C328.665 153.592 327.72 154.295 326.513 154.763C325.313 155.239 323.931 155.477 322.369 155.477ZM322.465 145.357C323.196 145.357 323.814 145.175 324.318 144.813C324.83 144.444 325.22 143.918 325.49 143.237C325.767 142.548 325.906 141.724 325.906 140.765C325.906 139.806 325.771 138.975 325.501 138.272C325.231 137.562 324.84 137.011 324.329 136.621C323.818 136.23 323.196 136.035 322.465 136.035C321.719 136.035 321.09 136.237 320.579 136.642C320.068 137.04 319.681 137.594 319.418 138.304C319.155 139.014 319.024 139.835 319.024 140.765C319.024 141.71 319.155 142.526 319.418 143.215C319.688 143.897 320.075 144.426 320.579 144.803C321.09 145.172 321.719 145.357 322.465 145.357ZM336.783 155.136C336.208 155.136 335.668 155.09 335.164 154.998C334.666 154.913 334.254 154.803 333.928 154.668L334.95 151.28C335.483 151.443 335.963 151.532 336.389 151.546C336.822 151.56 337.195 151.461 337.507 151.248C337.827 151.035 338.086 150.673 338.285 150.161L338.551 149.469L332.681 132.636H337.454L340.842 144.653H341.012L344.432 132.636H349.237L342.877 150.768C342.571 151.649 342.156 152.416 341.63 153.07C341.112 153.73 340.455 154.238 339.659 154.593C338.864 154.955 337.905 155.136 336.783 155.136ZM108.515 174.636V178.045H98.6605V174.636H108.515ZM100.898 170.716H105.436V185.972C105.436 186.391 105.5 186.717 105.628 186.952C105.756 187.179 105.933 187.339 106.161 187.431C106.395 187.523 106.665 187.57 106.97 187.57C107.183 187.57 107.396 187.552 107.609 187.516C107.822 187.474 107.986 187.442 108.099 187.42L108.813 190.798C108.586 190.869 108.266 190.95 107.854 191.043C107.442 191.142 106.942 191.202 106.352 191.224C105.259 191.266 104.3 191.121 103.476 190.787C102.659 190.453 102.023 189.935 101.569 189.232C101.114 188.528 100.891 187.641 100.898 186.568V170.716ZM118.689 191.32C117.034 191.32 115.603 190.968 114.396 190.265C113.195 189.555 112.268 188.567 111.615 187.303C110.962 186.032 110.635 184.558 110.635 182.882C110.635 181.192 110.962 179.714 111.615 178.45C112.268 177.179 113.195 176.192 114.396 175.489C115.603 174.778 117.034 174.423 118.689 174.423C120.344 174.423 121.771 174.778 122.972 175.489C124.179 176.192 125.109 177.179 125.763 178.45C126.416 179.714 126.743 181.192 126.743 182.882C126.743 184.558 126.416 186.032 125.763 187.303C125.109 188.567 124.179 189.555 122.972 190.265C121.771 190.968 120.344 191.32 118.689 191.32ZM118.71 187.804C119.463 187.804 120.092 187.591 120.596 187.165C121.1 186.732 121.48 186.142 121.736 185.396C121.999 184.651 122.13 183.802 122.13 182.85C122.13 181.898 121.999 181.05 121.736 180.304C121.48 179.558 121.1 178.969 120.596 178.536C120.092 178.102 119.463 177.886 118.71 177.886C117.95 177.886 117.311 178.102 116.793 178.536C116.281 178.969 115.894 179.558 115.631 180.304C115.376 181.05 115.248 181.898 115.248 182.85C115.248 183.802 115.376 184.651 115.631 185.396C115.894 186.142 116.281 186.732 116.793 187.165C117.311 187.591 117.95 187.804 118.71 187.804ZM144.009 197.477C142.539 197.477 141.279 197.275 140.227 196.87C139.183 196.472 138.352 195.929 137.735 195.24C137.117 194.551 136.715 193.777 136.531 192.918L140.728 192.353C140.856 192.68 141.058 192.985 141.335 193.269C141.612 193.553 141.978 193.781 142.433 193.951C142.894 194.129 143.455 194.217 144.116 194.217C145.103 194.217 145.916 193.976 146.556 193.493C147.202 193.017 147.525 192.218 147.525 191.096V188.102H147.333C147.134 188.557 146.836 188.987 146.438 189.391C146.041 189.796 145.529 190.126 144.904 190.382C144.279 190.638 143.534 190.766 142.667 190.766C141.438 190.766 140.32 190.482 139.311 189.913C138.31 189.338 137.511 188.461 136.914 187.282C136.325 186.096 136.03 184.597 136.03 182.786C136.03 180.933 136.332 179.384 136.936 178.141C137.539 176.898 138.342 175.968 139.343 175.35C140.352 174.732 141.456 174.423 142.656 174.423C143.573 174.423 144.34 174.58 144.958 174.892C145.575 175.197 146.073 175.581 146.449 176.043C146.833 176.497 147.127 176.945 147.333 177.385H147.504V174.636H152.01V191.16C152.01 192.552 151.669 193.717 150.987 194.654C150.306 195.592 149.361 196.295 148.154 196.763C146.953 197.239 145.572 197.477 144.009 197.477ZM144.105 187.357C144.837 187.357 145.455 187.175 145.959 186.813C146.47 186.444 146.861 185.918 147.131 185.237C147.408 184.548 147.546 183.724 147.546 182.765C147.546 181.806 147.411 180.975 147.142 180.272C146.872 179.562 146.481 179.011 145.97 178.621C145.458 178.23 144.837 178.035 144.105 178.035C143.36 178.035 142.731 178.237 142.22 178.642C141.708 179.04 141.321 179.594 141.058 180.304C140.796 181.014 140.664 181.835 140.664 182.765C140.664 183.71 140.796 184.526 141.058 185.215C141.328 185.897 141.715 186.426 142.22 186.803C142.731 187.172 143.36 187.357 144.105 187.357ZM155.622 191V174.636H160.021V177.491H160.192C160.49 176.476 160.991 175.709 161.694 175.19C162.397 174.665 163.207 174.402 164.123 174.402C164.35 174.402 164.595 174.416 164.858 174.445C165.121 174.473 165.352 174.512 165.551 174.562V178.589C165.338 178.525 165.043 178.468 164.666 178.418C164.29 178.369 163.945 178.344 163.633 178.344C162.965 178.344 162.369 178.489 161.843 178.781C161.325 179.065 160.913 179.462 160.607 179.974C160.309 180.485 160.16 181.075 160.16 181.742V191H155.622ZM174.529 191.32C172.874 191.32 171.443 190.968 170.235 190.265C169.035 189.555 168.108 188.567 167.455 187.303C166.801 186.032 166.475 184.558 166.475 182.882C166.475 181.192 166.801 179.714 167.455 178.45C168.108 177.179 169.035 176.192 170.235 175.489C171.443 174.778 172.874 174.423 174.529 174.423C176.184 174.423 177.611 174.778 178.811 175.489C180.019 176.192 180.949 177.179 181.603 178.45C182.256 179.714 182.583 181.192 182.583 182.882C182.583 184.558 182.256 186.032 181.603 187.303C180.949 188.567 180.019 189.555 178.811 190.265C177.611 190.968 176.184 191.32 174.529 191.32ZM174.55 187.804C175.303 187.804 175.931 187.591 176.436 187.165C176.94 186.732 177.32 186.142 177.576 185.396C177.838 184.651 177.97 183.802 177.97 182.85C177.97 181.898 177.838 181.05 177.576 180.304C177.32 179.558 176.94 178.969 176.436 178.536C175.931 178.102 175.303 177.886 174.55 177.886C173.79 177.886 173.151 178.102 172.632 178.536C172.121 178.969 171.734 179.558 171.471 180.304C171.216 181.05 171.088 181.898 171.088 182.85C171.088 183.802 171.216 184.651 171.471 185.396C171.734 186.142 172.121 186.732 172.632 187.165C173.151 187.591 173.79 187.804 174.55 187.804ZM188.352 191L183.898 174.636H188.49L191.026 185.631H191.175L193.817 174.636H198.323L201.008 185.567H201.146L203.639 174.636H208.22L203.778 191H198.973L196.161 180.709H195.958L193.146 191H188.352ZM228.078 184.033V174.636H232.616V191H228.259V188.028H228.089C227.719 188.987 227.105 189.757 226.246 190.339C225.393 190.922 224.353 191.213 223.124 191.213C222.031 191.213 221.068 190.964 220.237 190.467C219.406 189.97 218.756 189.263 218.288 188.347C217.826 187.431 217.592 186.334 217.585 185.055V174.636H222.123V184.246C222.13 185.212 222.389 185.975 222.901 186.536C223.412 187.097 224.097 187.378 224.957 187.378C225.504 187.378 226.015 187.254 226.491 187.005C226.967 186.749 227.35 186.373 227.641 185.876C227.94 185.379 228.085 184.764 228.078 184.033ZM236.247 197.136V174.636H240.721V177.385H240.923C241.122 176.945 241.41 176.497 241.786 176.043C242.17 175.581 242.667 175.197 243.278 174.892C243.896 174.58 244.663 174.423 245.579 174.423C246.772 174.423 247.873 174.736 248.882 175.361C249.89 175.979 250.696 176.913 251.3 178.163C251.904 179.406 252.205 180.964 252.205 182.839C252.205 184.665 251.911 186.206 251.321 187.463C250.739 188.713 249.943 189.661 248.935 190.308C247.933 190.947 246.811 191.266 245.568 191.266C244.688 191.266 243.938 191.121 243.32 190.83C242.71 190.538 242.209 190.173 241.818 189.732C241.428 189.285 241.129 188.834 240.923 188.379H240.785V197.136H236.247ZM240.689 182.818C240.689 183.791 240.824 184.64 241.094 185.364C241.364 186.089 241.754 186.653 242.266 187.058C242.777 187.456 243.399 187.655 244.13 187.655C244.869 187.655 245.494 187.452 246.005 187.048C246.517 186.636 246.904 186.067 247.166 185.343C247.436 184.612 247.571 183.77 247.571 182.818C247.571 181.874 247.44 181.043 247.177 180.325C246.914 179.608 246.527 179.047 246.016 178.642C245.504 178.237 244.876 178.035 244.13 178.035C243.392 178.035 242.767 178.23 242.255 178.621C241.751 179.011 241.364 179.565 241.094 180.283C240.824 181 240.689 181.845 240.689 182.818ZM102.613 239.136C102.038 239.136 101.498 239.09 100.994 238.998C100.496 238.913 100.085 238.803 99.7578 238.668L100.781 235.28C101.313 235.443 101.793 235.532 102.219 235.546C102.652 235.56 103.025 235.461 103.337 235.248C103.657 235.035 103.916 234.673 104.115 234.161L104.381 233.469L98.5114 216.636H103.284L106.672 228.653H106.842L110.262 216.636H115.067L108.707 234.768C108.401 235.649 107.986 236.416 107.46 237.07C106.942 237.73 106.285 238.238 105.489 238.593C104.694 238.955 103.735 239.136 102.613 239.136ZM124.255 233.32C122.6 233.32 121.169 232.968 119.962 232.265C118.762 231.555 117.835 230.567 117.181 229.303C116.528 228.032 116.201 226.558 116.201 224.882C116.201 223.192 116.528 221.714 117.181 220.45C117.835 219.179 118.762 218.192 119.962 217.489C121.169 216.778 122.6 216.423 124.255 216.423C125.91 216.423 127.338 216.778 128.538 217.489C129.745 218.192 130.676 219.179 131.329 220.45C131.983 221.714 132.309 223.192 132.309 224.882C132.309 226.558 131.983 228.032 131.329 229.303C130.676 230.567 129.745 231.555 128.538 232.265C127.338 232.968 125.91 233.32 124.255 233.32ZM124.277 229.804C125.029 229.804 125.658 229.591 126.162 229.165C126.667 228.732 127.047 228.142 127.302 227.396C127.565 226.651 127.696 225.802 127.696 224.85C127.696 223.898 127.565 223.05 127.302 222.304C127.047 221.558 126.667 220.969 126.162 220.536C125.658 220.102 125.029 219.886 124.277 219.886C123.517 219.886 122.877 220.102 122.359 220.536C121.848 220.969 121.461 221.558 121.198 222.304C120.942 223.05 120.814 223.898 120.814 224.85C120.814 225.802 120.942 226.651 121.198 227.396C121.461 228.142 121.848 228.732 122.359 229.165C122.877 229.591 123.517 229.804 124.277 229.804ZM145.754 226.033V216.636H150.292V233H145.935V230.028H145.765C145.395 230.987 144.781 231.757 143.922 232.339C143.069 232.922 142.029 233.213 140.8 233.213C139.706 233.213 138.744 232.964 137.913 232.467C137.082 231.97 136.432 231.263 135.963 230.347C135.502 229.431 135.267 228.334 135.26 227.055V216.636H139.799V226.246C139.806 227.212 140.065 227.975 140.576 228.536C141.088 229.097 141.773 229.378 142.632 229.378C143.179 229.378 143.691 229.254 144.167 229.005C144.642 228.749 145.026 228.373 145.317 227.876C145.615 227.379 145.761 226.764 145.754 226.033ZM153.922 233V216.636H158.322V219.491H158.493C158.791 218.476 159.292 217.709 159.995 217.19C160.698 216.665 161.508 216.402 162.424 216.402C162.651 216.402 162.896 216.416 163.159 216.445C163.422 216.473 163.653 216.512 163.851 216.562V220.589C163.638 220.525 163.344 220.468 162.967 220.418C162.591 220.369 162.246 220.344 161.934 220.344C161.266 220.344 160.67 220.489 160.144 220.781C159.626 221.065 159.214 221.462 158.908 221.974C158.61 222.485 158.461 223.075 158.461 223.742V233H153.922ZM173.226 233V211.182H177.765V219.385H177.903C178.102 218.945 178.39 218.497 178.766 218.043C179.15 217.581 179.647 217.197 180.258 216.892C180.876 216.58 181.643 216.423 182.559 216.423C183.752 216.423 184.853 216.736 185.861 217.361C186.87 217.979 187.676 218.913 188.28 220.163C188.883 221.406 189.185 222.964 189.185 224.839C189.185 226.665 188.89 228.206 188.301 229.463C187.719 230.713 186.923 231.661 185.915 232.308C184.913 232.947 183.791 233.266 182.548 233.266C181.667 233.266 180.918 233.121 180.3 232.83C179.689 232.538 179.189 232.173 178.798 231.732C178.407 231.285 178.109 230.834 177.903 230.379H177.701V233H173.226ZM177.669 224.818C177.669 225.791 177.804 226.64 178.074 227.364C178.344 228.089 178.734 228.653 179.246 229.058C179.757 229.456 180.378 229.655 181.11 229.655C181.849 229.655 182.474 229.452 182.985 229.048C183.496 228.636 183.883 228.067 184.146 227.343C184.416 226.612 184.551 225.77 184.551 224.818C184.551 223.874 184.42 223.043 184.157 222.325C183.894 221.608 183.507 221.047 182.996 220.642C182.484 220.237 181.856 220.035 181.11 220.035C180.371 220.035 179.746 220.23 179.235 220.621C178.731 221.011 178.344 221.565 178.074 222.283C177.804 223 177.669 223.845 177.669 224.818ZM202.707 226.033V216.636H207.245V233H202.888V230.028H202.718C202.348 230.987 201.734 231.757 200.875 232.339C200.022 232.922 198.982 233.213 197.753 233.213C196.659 233.213 195.697 232.964 194.866 232.467C194.035 231.97 193.385 231.263 192.917 230.347C192.455 229.431 192.221 228.334 192.213 227.055V216.636H196.752V226.246C196.759 227.212 197.018 227.975 197.529 228.536C198.041 229.097 198.726 229.378 199.586 229.378C200.132 229.378 200.644 229.254 201.12 229.005C201.596 228.749 201.979 228.373 202.27 227.876C202.569 227.379 202.714 226.764 202.707 226.033ZM224.491 221.303L220.336 221.558C220.265 221.203 220.112 220.884 219.878 220.599C219.643 220.308 219.334 220.077 218.951 219.907C218.574 219.729 218.123 219.641 217.598 219.641C216.895 219.641 216.302 219.79 215.819 220.088C215.336 220.379 215.094 220.77 215.094 221.26C215.094 221.651 215.251 221.981 215.563 222.251C215.876 222.521 216.412 222.737 217.172 222.901L220.133 223.497C221.724 223.824 222.91 224.349 223.692 225.074C224.473 225.798 224.863 226.75 224.863 227.929C224.863 229.001 224.547 229.942 223.915 230.752C223.29 231.562 222.431 232.194 221.337 232.648C220.251 233.096 218.997 233.32 217.577 233.32C215.41 233.32 213.684 232.869 212.399 231.967C211.121 231.058 210.371 229.822 210.151 228.259L214.615 228.025C214.75 228.685 215.077 229.19 215.595 229.538C216.113 229.879 216.778 230.049 217.587 230.049C218.383 230.049 219.022 229.896 219.505 229.591C219.995 229.278 220.243 228.877 220.251 228.387C220.243 227.975 220.069 227.638 219.729 227.375C219.388 227.105 218.862 226.899 218.152 226.757L215.318 226.192C213.72 225.873 212.53 225.319 211.749 224.531C210.975 223.742 210.588 222.737 210.588 221.516C210.588 220.464 210.872 219.559 211.44 218.799C212.015 218.039 212.822 217.453 213.858 217.041C214.903 216.629 216.124 216.423 217.523 216.423C219.59 216.423 221.216 216.86 222.403 217.734C223.596 218.607 224.292 219.797 224.491 221.303ZM227.721 233V216.636H232.26V233H227.721ZM230.001 214.527C229.326 214.527 228.748 214.303 228.265 213.856C227.789 213.401 227.551 212.858 227.551 212.226C227.551 211.601 227.789 211.065 228.265 210.617C228.748 210.163 229.326 209.935 230.001 209.935C230.676 209.935 231.251 210.163 231.727 210.617C232.21 211.065 232.451 211.601 232.451 212.226C232.451 212.858 232.21 213.401 231.727 213.856C231.251 214.303 230.676 214.527 230.001 214.527ZM240.433 223.54V233H235.895V216.636H240.22V219.523H240.412C240.774 218.572 241.382 217.819 242.234 217.265C243.086 216.704 244.119 216.423 245.334 216.423C246.47 216.423 247.461 216.672 248.306 217.169C249.151 217.666 249.808 218.376 250.277 219.3C250.746 220.216 250.98 221.31 250.98 222.581V233H246.442V223.391C246.449 222.389 246.193 221.608 245.675 221.047C245.156 220.479 244.443 220.195 243.534 220.195C242.923 220.195 242.383 220.326 241.914 220.589C241.453 220.852 241.09 221.235 240.828 221.739C240.572 222.237 240.441 222.837 240.433 223.54ZM262.015 233.32C260.331 233.32 258.882 232.979 257.668 232.297C256.461 231.608 255.53 230.635 254.877 229.378C254.223 228.114 253.897 226.619 253.897 224.893C253.897 223.21 254.223 221.732 254.877 220.461C255.53 219.19 256.45 218.199 257.636 217.489C258.829 216.778 260.228 216.423 261.833 216.423C262.913 216.423 263.918 216.597 264.848 216.945C265.786 217.286 266.603 217.801 267.299 218.49C268.002 219.179 268.549 220.045 268.939 221.089C269.33 222.126 269.525 223.341 269.525 224.733V225.979H255.708V223.167H265.253C265.253 222.513 265.111 221.935 264.827 221.43C264.543 220.926 264.149 220.532 263.645 220.248C263.147 219.957 262.569 219.811 261.908 219.811C261.219 219.811 260.608 219.971 260.076 220.29C259.55 220.603 259.138 221.026 258.84 221.558C258.542 222.084 258.389 222.67 258.382 223.316V225.99C258.382 226.8 258.531 227.499 258.829 228.089C259.135 228.678 259.564 229.133 260.118 229.452C260.672 229.772 261.329 229.932 262.089 229.932C262.593 229.932 263.055 229.861 263.474 229.719C263.893 229.577 264.252 229.364 264.55 229.08C264.848 228.795 265.076 228.447 265.232 228.036L269.429 228.312C269.216 229.321 268.779 230.202 268.119 230.955C267.466 231.7 266.62 232.283 265.583 232.702C264.554 233.114 263.364 233.32 262.015 233.32ZM286.102 221.303L281.947 221.558C281.876 221.203 281.723 220.884 281.489 220.599C281.255 220.308 280.946 220.077 280.562 219.907C280.186 219.729 279.735 219.641 279.209 219.641C278.506 219.641 277.913 219.79 277.43 220.088C276.947 220.379 276.706 220.77 276.706 221.26C276.706 221.651 276.862 221.981 277.174 222.251C277.487 222.521 278.023 222.737 278.783 222.901L281.745 223.497C283.336 223.824 284.522 224.349 285.303 225.074C286.084 225.798 286.475 226.75 286.475 227.929C286.475 229.001 286.159 229.942 285.527 230.752C284.902 231.562 284.042 232.194 282.949 232.648C281.862 233.096 280.608 233.32 279.188 233.32C277.022 233.32 275.296 232.869 274.01 231.967C272.732 231.058 271.983 229.822 271.762 228.259L276.226 228.025C276.361 228.685 276.688 229.19 277.206 229.538C277.725 229.879 278.389 230.049 279.199 230.049C279.994 230.049 280.633 229.896 281.116 229.591C281.606 229.278 281.855 228.877 281.862 228.387C281.855 227.975 281.681 227.638 281.34 227.375C280.999 227.105 280.473 226.899 279.763 226.757L276.929 226.192C275.331 225.873 274.142 225.319 273.36 224.531C272.586 223.742 272.199 222.737 272.199 221.516C272.199 220.464 272.483 219.559 273.051 218.799C273.627 218.039 274.433 217.453 275.47 217.041C276.514 216.629 277.735 216.423 279.135 216.423C281.201 216.423 282.828 216.86 284.014 217.734C285.207 218.607 285.903 219.797 286.102 221.303ZM302.948 221.303L298.793 221.558C298.722 221.203 298.569 220.884 298.335 220.599C298.1 220.308 297.791 220.077 297.408 219.907C297.031 219.729 296.58 219.641 296.055 219.641C295.352 219.641 294.759 219.79 294.276 220.088C293.793 220.379 293.551 220.77 293.551 221.26C293.551 221.651 293.708 221.981 294.02 222.251C294.333 222.521 294.869 222.737 295.629 222.901L298.59 223.497C300.181 223.824 301.367 224.349 302.149 225.074C302.93 225.798 303.32 226.75 303.32 227.929C303.32 229.001 303.004 229.942 302.372 230.752C301.747 231.562 300.888 232.194 299.794 232.648C298.708 233.096 297.454 233.32 296.034 233.32C293.867 233.32 292.142 232.869 290.856 231.967C289.578 231.058 288.828 229.822 288.608 228.259L293.072 228.025C293.207 228.685 293.534 229.19 294.052 229.538C294.57 229.879 295.235 230.049 296.044 230.049C296.84 230.049 297.479 229.896 297.962 229.591C298.452 229.278 298.7 228.877 298.708 228.387C298.7 227.975 298.526 227.638 298.186 227.375C297.845 227.105 297.319 226.899 296.609 226.757L293.775 226.192C292.177 225.873 290.987 225.319 290.206 224.531C289.432 223.742 289.045 222.737 289.045 221.516C289.045 220.464 289.329 219.559 289.897 218.799C290.472 218.039 291.279 217.453 292.316 217.041C293.36 216.629 294.581 216.423 295.98 216.423C298.047 216.423 299.673 216.86 300.86 217.734C302.053 218.607 302.749 219.797 302.948 221.303Z" fill="url(#paint0_linear_297_586)"/>
<path d="M31.5 49C31.5 38.7827 39.7827 30.5 50 30.5H413.537C419.316 30.5 424.762 33.2002 428.261 37.7994L517.17 154.677C519.495 157.734 519.482 161.971 517.137 165.013L428.269 280.295C424.766 284.838 419.354 287.5 413.617 287.5H50C39.7827 287.5 31.5 279.217 31.5 269V49Z" stroke="url(#paint1_linear_297_586)" stroke-width="3"/>
<defs>
<filter id="filter0_d_297_586" x="0" y="0" width="567.447" height="332" filterUnits="userSpaceOnUse" color-interpolation-filters="sRGB">
<feFlood flood-opacity="0" result="BackgroundImageFix"/>
<feColorMatrix in="SourceAlpha" type="matrix" values="0 0 0 0 0 0 0 0 0 0 0 0 0 0 0 0 0 0 127 0" result="hardAlpha"/>
<feOffset dx="5" dy="5"/>
<feGaussianBlur stdDeviation="10"/>
<feComposite in2="hardAlpha" operator="out"/>
<feColorMatrix type="matrix" values="0 0 0 0 0 0 0 0 0 0 0 0 0 0 0 0 0 0 0.25 0"/>
<feBlend mode="normal" in2="BackgroundImageFix" result="effect1_dropShadow_297_586"/>
<feBlend mode="normal" in="SourceGraphic" in2="effect1_dropShadow_297_586" result="shape"/>
</filter>
<linearGradient id="paint0_linear_297_586" x1="23.5" y1="173.5" x2="207.832" y2="305.788" gradientUnits="userSpaceOnUse">
<stop stop-color="#37013F"/>
<stop offset="0.94985" stop-color="#B4088D"/>
</linearGradient>
<linearGradient id="paint1_linear_297_586" x1="87.0842" y1="29" x2="272.853" y2="349.864" gradientUnits="userSpaceOnUse">
<stop stop-color="#37013F"/>
<stop offset="0.94985" stop-color="#B4088D"/>
</linearGradient>
</defs>
</svg>
